<?xml version="1.0" encoding="utf-8"?>
<!-- Generator: Adobe Illustrator 22.1.0, SVG Export Plug-In . SVG Version: 6.00 Build 0)  -->
<svg version="1.1" id="Capa_1" xmlns="http://www.w3.org/2000/svg" xmlns:xlink="http://www.w3.org/1999/xlink" x="0px" y="0px"
	 viewBox="0 0 89 74" style="enable-background:new 0 0 89 74;" xml:space="preserve">
<style type="text/css">
	.st0{fill:#44C4A1;}
	.st1{fill:#DC8744;}
	.st2{fill:#3A556A;}
	.st3{fill:#D15241;}
	.st4{fill:#2D93BA;}
	.st5{fill:#27A2DB;}
	.st6{fill:#EBF0F3;}
	.st7{fill:#E56353;}
	.st8{fill:#64798A;}
	.st9{fill:#D5D6DB;}
	.st10{fill:#2F4859;}
	.st11{fill:#E1E6E9;}
</style>
<g>
	<path class="st0" d="M53.8,16.4c0,0-2.3-4-6.4-1.6c-1.2,0.7-0.9-1-2.8,0.5V8.4c0,0,0.2,2.5,4.2,0.6c1.1-0.5,2.9-1.1,5-0.3
		C53.8,8.8,55.7,11.5,53.8,16.4z"/>
	<rect x="43.3" y="7.2" class="st1" width="1.4" height="16.3"/>
	<rect x="0" y="63" class="st2" width="89" height="6"/>
	<rect x="3.5" y="31.7" class="st3" width="31.1" height="31.3"/>
	<rect x="4.9" y="33.9" class="st4" width="4.7" height="11.5"/>
	<polygon class="st5" points="4.9,45.3 4.9,33.9 9.6,33.9 	"/>
	<g>
		<rect x="7.1" y="33.8" class="st6" width="0.3" height="11.5"/>
		<rect x="4.9" y="36.6" class="st6" width="4.7" height="0.5"/>
	</g>
	<rect x="4.8" y="47.7" class="st4" width="4.7" height="11.5"/>
	<polygon class="st5" points="4.8,59.2 4.8,47.7 9.5,47.7 	"/>
	<g>
		<rect x="7" y="47.7" class="st6" width="0.3" height="11.5"/>
		<rect x="4.8" y="50.4" class="st6" width="4.7" height="0.5"/>
	</g>
	<rect x="12.1" y="33.9" class="st4" width="4.7" height="11.5"/>
	<polygon class="st5" points="12.1,45.3 12.1,33.9 16.8,33.9 	"/>
	<g>
		<rect x="14.3" y="33.8" class="st6" width="0.3" height="11.5"/>
		<rect x="12.1" y="36.6" class="st6" width="4.7" height="0.5"/>
	</g>
	<rect x="12.1" y="47.7" class="st4" width="4.7" height="11.5"/>
	<polygon class="st5" points="12.1,59.2 12.1,47.7 16.8,47.7 	"/>
	<g>
		<rect x="14.3" y="47.7" class="st6" width="0.3" height="11.5"/>
		<rect x="12.1" y="50.4" class="st6" width="4.7" height="0.5"/>
	</g>
	<rect x="19.2" y="33.9" class="st4" width="4.7" height="11.5"/>
	<polygon class="st5" points="19.2,45.3 19.2,33.9 23.9,33.9 	"/>
	<g>
		<rect x="21.4" y="33.8" class="st6" width="0.3" height="11.5"/>
		<rect x="19.2" y="36.6" class="st6" width="4.7" height="0.5"/>
	</g>
	<rect x="19.2" y="47.7" class="st4" width="4.7" height="11.5"/>
	<polygon class="st5" points="19.2,59.2 19.2,47.7 23.9,47.7 	"/>
	<g>
		<rect x="21.4" y="47.7" class="st6" width="0.3" height="11.5"/>
		<rect x="19.2" y="50.4" class="st6" width="4.7" height="0.5"/>
	</g>
	<rect x="26.4" y="33.9" class="st4" width="4.7" height="11.5"/>
	<polygon class="st5" points="26.4,45.3 26.4,33.9 31.1,33.9 	"/>
	<g>
		<rect x="28.6" y="33.8" class="st6" width="0.3" height="11.5"/>
		<rect x="26.4" y="36.6" class="st6" width="4.7" height="0.5"/>
	</g>
	<rect x="26.4" y="47.7" class="st4" width="4.7" height="11.5"/>
	<polygon class="st5" points="26.4,59.2 26.4,47.7 31.1,47.7 	"/>
	<g>
		<rect x="28.6" y="47.7" class="st6" width="0.3" height="11.5"/>
		<rect x="26.4" y="50.4" class="st6" width="4.7" height="0.5"/>
	</g>
	<rect x="55" y="31.8" class="st3" width="31.1" height="31.2"/>
	<rect x="58.8" y="33.9" class="st4" width="4.7" height="11.5"/>
	<polygon class="st5" points="58.8,45.3 58.8,33.9 63.5,33.9 	"/>
	<g>
		<rect x="61" y="33.8" class="st6" width="0.3" height="11.5"/>
		<rect x="58.8" y="36.6" class="st6" width="4.7" height="0.5"/>
	</g>
	<rect x="58.6" y="47.7" class="st4" width="4.7" height="11.5"/>
	<polygon class="st5" points="58.6,59.2 58.6,47.7 63.3,47.7 	"/>
	<g>
		<rect x="60.8" y="47.7" class="st6" width="0.3" height="11.5"/>
		<rect x="58.6" y="50.4" class="st6" width="4.7" height="0.5"/>
	</g>
	<rect x="65.9" y="33.9" class="st4" width="4.7" height="11.5"/>
	<polygon class="st5" points="65.9,45.3 65.9,33.9 70.6,33.9 	"/>
	<g>
		<rect x="68.1" y="33.8" class="st6" width="0.3" height="11.5"/>
		<rect x="65.9" y="36.6" class="st6" width="4.7" height="0.5"/>
	</g>
	<rect x="65.9" y="47.7" class="st4" width="4.7" height="11.5"/>
	<polygon class="st5" points="65.9,59.2 65.9,47.7 70.6,47.7 	"/>
	<g>
		<rect x="68.1" y="47.7" class="st6" width="0.3" height="11.5"/>
		<rect x="65.9" y="50.4" class="st6" width="4.7" height="0.5"/>
	</g>
	<rect x="73" y="33.9" class="st4" width="4.7" height="11.5"/>
	<polygon class="st5" points="73,45.3 73,33.9 77.7,33.9 	"/>
	<g>
		<rect x="75.2" y="33.8" class="st6" width="0.3" height="11.5"/>
		<rect x="73" y="36.6" class="st6" width="4.7" height="0.5"/>
	</g>
	<rect x="73" y="47.7" class="st4" width="4.7" height="11.5"/>
	<polygon class="st5" points="73,59.2 73,47.7 77.7,47.7 	"/>
	<g>
		<rect x="75.2" y="47.7" class="st6" width="0.3" height="11.5"/>
		<rect x="73" y="50.4" class="st6" width="4.7" height="0.5"/>
	</g>
	<rect x="80.2" y="33.9" class="st4" width="4.7" height="11.5"/>
	<polygon class="st5" points="80.2,45.3 80.2,33.9 84.9,33.9 	"/>
	<g>
		<rect x="82.4" y="33.8" class="st6" width="0.3" height="11.5"/>
		<rect x="80.2" y="36.6" class="st6" width="4.7" height="0.5"/>
	</g>
	<rect x="80.2" y="47.7" class="st4" width="4.7" height="11.5"/>
	<polygon class="st5" points="80.2,59.2 80.2,47.7 84.9,47.7 	"/>
	<g>
		<rect x="82.4" y="47.7" class="st6" width="0.3" height="11.5"/>
		<rect x="80.2" y="50.4" class="st6" width="4.7" height="0.5"/>
	</g>
	<rect x="32.5" y="30.2" class="st7" width="24.2" height="32.8"/>
	<rect x="32.3" y="23.8" class="st8" width="24.4" height="6.5"/>
	<polyline class="st2" points="28.9,28.6 43.9,19.3 60.2,28.6 	"/>
	<rect x="32.5" y="30.2" class="st9" width="6.9" height="32.6"/>
	<g>
		<rect x="37.7" y="30.2" class="st2" width="0.9" height="32.6"/>
		<rect x="35.5" y="30.2" class="st2" width="0.9" height="32.6"/>
		<rect x="33.3" y="30.2" class="st2" width="0.9" height="32.6"/>
	</g>
	<rect x="49.8" y="30.2" class="st9" width="6.9" height="32.6"/>
	<g>
		<rect x="55" y="30.2" class="st2" width="0.9" height="32.6"/>
		<rect x="52.8" y="30.2" class="st2" width="0.9" height="32.6"/>
		<rect x="50.6" y="30.2" class="st2" width="0.9" height="32.6"/>
	</g>
	<rect x="25.4" y="62.8" class="st8" width="40.5" height="6.2"/>
	<g>
		<rect x="62" y="63.6" class="st9" width="1.9" height="4.6"/>
		<rect x="58.8" y="63.6" class="st9" width="1.9" height="4.6"/>
		<rect x="55.7" y="63.6" class="st9" width="1.9" height="4.6"/>
		<rect x="52.6" y="63.6" class="st9" width="1.9" height="4.6"/>
		<rect x="49.4" y="63.6" class="st9" width="1.9" height="4.6"/>
		<rect x="46.3" y="63.6" class="st9" width="1.9" height="4.6"/>
		<rect x="43.1" y="63.6" class="st9" width="1.9" height="4.6"/>
		<rect x="40" y="63.6" class="st9" width="1.9" height="4.6"/>
		<rect x="36.9" y="63.6" class="st9" width="1.9" height="4.6"/>
		<rect x="33.7" y="63.6" class="st9" width="1.9" height="4.6"/>
		<rect x="30.6" y="63.6" class="st9" width="1.9" height="4.6"/>
		<rect x="27.4" y="63.6" class="st9" width="1.9" height="4.6"/>
	</g>
	<rect x="2.2" y="60.3" class="st8" width="30.3" height="2.7"/>
	<g>
		<rect x="29.3" y="60.6" class="st9" width="1.9" height="2"/>
		<rect x="26.2" y="60.6" class="st9" width="1.9" height="2"/>
		<rect x="23.1" y="60.6" class="st9" width="1.9" height="2"/>
		<rect x="19.9" y="60.6" class="st9" width="1.9" height="2"/>
		<rect x="16.8" y="60.6" class="st9" width="1.9" height="2"/>
		<rect x="13.6" y="60.6" class="st9" width="1.9" height="2"/>
		<rect x="10.5" y="60.6" class="st9" width="1.9" height="2"/>
		<rect x="7.4" y="60.6" class="st9" width="1.9" height="2"/>
		<rect x="4.2" y="60.6" class="st9" width="1.9" height="2"/>
	</g>
	<rect x="56.7" y="60.3" class="st8" width="30.2" height="2.7"/>
	<g>
		<rect x="83.8" y="60.6" class="st9" width="1.9" height="2"/>
		<rect x="80.7" y="60.6" class="st9" width="1.9" height="2"/>
		<rect x="77.5" y="60.6" class="st9" width="1.9" height="2"/>
		<rect x="74.4" y="60.6" class="st9" width="1.9" height="2"/>
		<rect x="71.3" y="60.6" class="st9" width="1.9" height="2"/>
		<rect x="68.2" y="60.6" class="st9" width="1.9" height="2"/>
		<rect x="65" y="60.6" class="st9" width="1.9" height="2"/>
		<rect x="61.9" y="60.6" class="st9" width="1.9" height="2"/>
		<rect x="58.8" y="60.6" class="st9" width="1.9" height="2"/>
	</g>
	<rect x="41.2" y="33.9" class="st4" width="6.8" height="11.5"/>
	<polygon class="st5" points="41.2,45.3 41.2,33.9 47.9,33.9 	"/>
	<g>
		<rect x="44.3" y="33.8" class="st6" width="0.4" height="11.5"/>
		<rect x="41.2" y="36.6" class="st6" width="6.8" height="0.5"/>
	</g>
	<rect x="41" y="51" class="st10" width="6.8" height="11.8"/>
	<rect x="41.6" y="56.1" class="st6" width="0.4" height="1.9"/>
	<rect x="3.5" y="28.6" class="st11" width="28.9" height="3.1"/>
	<rect x="56.8" y="28.6" class="st6" width="29.3" height="3.1"/>
	<g>
		<rect x="78.1" y="24.4" class="st8" width="4" height="4.2"/>
		<rect x="7.6" y="24.4" class="st8" width="4" height="4.2"/>
	</g>
</g>
</svg>
