<?xml version="1.0" encoding="utf-8"?>
<!-- Generator: Adobe Illustrator 22.1.0, SVG Export Plug-In . SVG Version: 6.00 Build 0)  -->
<svg version="1.1" id="Layer_1" xmlns="http://www.w3.org/2000/svg" xmlns:xlink="http://www.w3.org/1999/xlink" x="0px" y="0px"
	 viewBox="0 0 89 89" style="enable-background:new 0 0 89 89;" xml:space="preserve">
<style type="text/css">
	.st0{fill:#467082;}
	.st1{fill:#344D5B;}
	.st2{fill:#FED35B;}
	.st3{fill:#FEDA6F;}
	.st4{fill:#DBD8DD;}
	.st5{fill:#EDEDED;}
	.st6{fill:#DD584D;}
	.st7{fill:none;stroke:#69E781;stroke-miterlimit:10;}
</style>
<g>
	<path class="st0" d="M44.5,14.3h14.6v2.5H44.5V14.3z"/>
	<path class="st1" d="M45.6,10.7h-7.9c-0.8,0-1.5,0.7-1.5,1.5v10.5h11V12.3C47.2,11.3,46.5,10.7,45.6,10.7z"/>
	<path class="st2" d="M50.8,22.5H32.6c-0.8,0-1.5,0.7-1.5,1.5V34h21.2V24C52.3,23.1,51.7,22.5,50.8,22.5z"/>
	<path class="st3" d="M48.8,22.5H34.7c-0.6,0-1.2,0.7-1.2,1.5V34h16.5V24C49.9,23.1,49.4,22.5,48.8,22.5z"/>
	<path class="st1" d="M63.7,7c-6.3,0-11.5,3.8-11.5,8.4s5.1,8.4,11.5,8.4s11.5-3.8,11.5-8.4C75.2,10.7,70.1,7,63.7,7z"/>
	<path class="st4" d="M57.3,32.1H26.2c-7,0-12.5,5.6-12.5,12.5v28.9c0,7,5.6,12.5,12.5,12.5h31.1c7,0,12.5-5.6,12.5-12.5V44.6
		C69.8,37.7,64.2,32.1,57.3,32.1z"/>
	<path class="st5" d="M53.4,32.1H30c-5.2,0-9.4,5.6-9.4,12.5v28.9c0,7,4.2,12.5,9.4,12.5h23.4c5.2,0,9.4-5.6,9.4-12.5V44.6
		C62.9,37.7,58.6,32.1,53.4,32.1z"/>
	<ellipse class="st6" cx="40.6" cy="59.8" rx="9.9" ry="9.9"/>
</g>
<path class="st7" d="M8.7,71.1C4,64.5,1.3,56.3,1,48.1c-0.2-7.4,1.3-14.7,4.7-21.3c2.9-5.5,6.9-10.3,11.8-14.2
	c4.8-3.9,10.3-6.8,16.3-8.3S46,2.5,52,3.8c0.7,0.2,1.5,0.3,2.3,0.5"/>
<path class="st7" d="M78.6,19.8C93.2,36.2,90,63.4,74.5,78.3"/>
</svg>
