<?xml version="1.0" encoding="utf-8"?>
<!-- Generator: Adobe Illustrator 22.1.0, SVG Export Plug-In . SVG Version: 6.00 Build 0)  -->
<svg version="1.1" id="Capa_1" xmlns="http://www.w3.org/2000/svg" xmlns:xlink="http://www.w3.org/1999/xlink" x="0px" y="0px"
	 viewBox="0 0 89 89" style="enable-background:new 0 0 89 89;" xml:space="preserve">
<style type="text/css">
	.st0{fill:#D5D6DB;}
	.st1{fill:#EBF0F3;}
	.st2{fill:#FFFFFF;}
	.st3{fill:#E56353;}
	.st4{fill:#64798A;}
	.st5{fill:#44C4A1;}
	.st6{fill:#E1E6E9;}
	.st7{fill:none;stroke:#69E781;stroke-miterlimit:10;}
</style>
<g>
	<path class="st0" d="M31.2,42.9l4.3,6.8L18.1,60.5c-0.9,0.6-5.2-6.2-4.3-6.8L31.2,42.9z"/>
	<path class="st1" d="M60.5,17.6l10.8,17.3L27.1,62.2c-2.3,1.5-13.2-15.8-10.8-17.3L60.5,17.6z"/>
	<path class="st2" d="M70.6,33.6L26.7,60.8c-0.9-0.5-3-2.8-5.6-6.9s-3.7-7-3.8-8l43.9-27.2L70.6,33.6z"/>
	<path class="st3" d="M50.4,46.1L26.7,60.8c-0.9-0.5-3-2.8-5.6-6.9s-3.7-7-3.8-8L33.3,36L50.4,46.1z"/>
	<polygon class="st0" points="16.4,57.2 16,56.6 1.3,65.7 0,67.4 	"/>
	<polygon class="st1" points="78.3,12.4 83.8,21.2 58.9,36.6 53.4,27.8 	"/>
	<path class="st4" d="M51.5,24.8l9.3,14.9l-4.6,2.9c-1.8,1.1-11.2-13.8-9.3-14.9L51.5,24.8z"/>
	<g>
		<path class="st0" d="M63,15.2l11.6,18.4c0.5,0.8,0.3,1.8-0.5,2.3l0,0c-0.8,0.5-1.8,0.2-2.3-0.5L60.1,17c-0.5-0.8-0.3-1.8,0.5-2.3
			l0,0C61.4,14.2,62.5,14.4,63,15.2z"/>
		<path class="st0" d="M77.2,6.4l11.6,18.4c0.5,0.8,0.3,1.8-0.5,2.3l0,0c-0.8,0.5-1.8,0.2-2.3-0.5L74.3,8.2
			c-0.5-0.8-0.3-1.8,0.5-2.3l0,0C75.6,5.4,76.7,5.6,77.2,6.4z"/>
	</g>
	<g>
		<polygon class="st1" points="67.3,34.5 66.2,32.8 66.7,32.5 67.8,34.2 		"/>
		<polygon class="st1" points="65.6,35.6 64.6,33.9 65.1,33.6 66.1,35.2 		"/>
		<polygon class="st1" points="64,36.6 62.9,34.9 63.4,34.6 64.5,36.3 		"/>
		<polygon class="st1" points="62.3,37.6 61.3,35.9 61.8,35.6 62.8,37.3 		"/>
		<polygon class="st1" points="60.7,38.6 58.8,35.6 59.3,35.3 61.2,38.3 		"/>
		<polygon class="st1" points="58.7,39.8 57.6,38.1 58.2,37.8 59.2,39.5 		"/>
		<polygon class="st1" points="57.1,40.9 56,39.2 56.5,38.9 57.6,40.6 		"/>
		<polygon class="st1" points="55.4,41.9 54.3,40.2 54.8,39.9 55.9,41.6 		"/>
		<polygon class="st1" points="53.7,42.9 52.7,41.2 53.2,40.9 54.2,42.6 		"/>
		<polygon class="st1" points="52.1,44 50.2,40.9 50.7,40.6 52.6,43.6 		"/>
		<polygon class="st1" points="50.1,45.2 49.1,43.4 49.6,43.1 50.6,44.8 		"/>
		<polygon class="st1" points="48.5,46.2 47.4,44.5 47.9,44.2 49,45.9 		"/>
		<polygon class="st1" points="46.8,47.2 45.8,45.5 46.3,45.2 47.3,46.9 		"/>
		<polygon class="st1" points="45.2,48.2 44.1,46.5 44.6,46.2 45.7,47.9 		"/>
		<polygon class="st1" points="43.5,49.3 41.6,46.2 42.1,45.9 44,49 		"/>
		<polygon class="st1" points="41.6,50.5 40.5,48.7 41,48.4 42.1,50.1 		"/>
		<polygon class="st1" points="39.9,51.5 38.8,49.8 39.4,49.5 40.4,51.2 		"/>
		<polygon class="st1" points="38.2,52.5 37.2,50.8 37.7,50.5 38.7,52.2 		"/>
		<polygon class="st1" points="36.6,53.5 35.5,51.8 36,51.5 37.1,53.2 		"/>
		<polygon class="st1" points="34.9,54.6 33,51.5 33.5,51.2 35.4,54.3 		"/>
		<polygon class="st1" points="33,55.8 31.9,54.1 32.4,53.7 33.5,55.5 		"/>
		<polygon class="st1" points="31.3,56.8 30.2,55.1 30.8,54.8 31.8,56.5 		"/>
		<polygon class="st1" points="29.7,57.8 28.6,56.1 29.1,55.8 30.2,57.5 		"/>
		<polygon class="st1" points="28,58.8 26.9,57.2 27.4,56.8 28.5,58.5 		"/>
		<polygon class="st1" points="26.3,59.9 24.4,56.8 24.9,56.5 26.8,59.6 		"/>
	</g>
	<path class="st4" d="M48.4,44.2H33.7c-0.4,0-0.8,0.3-0.8,0.8v3.9c0,0.4,0.3,0.8,0.8,0.8h14.6c0.4,0,0.8-0.3,0.8-0.8V45
		C49.1,44.6,48.8,44.2,48.4,44.2z"/>
	<path class="st2" d="M49.8,54.6l-1.8-1.5c-0.6-0.5-0.9-1.2-0.9-2v-1.4H35v1.4c0,0.8-0.3,1.5-0.9,2l-1.8,1.5
		c-0.9,0.8-1.4,1.9-1.4,3.1v24.6c0,0.6,0.5,1.1,1.1,1.1h18.1c0.6,0,1.1-0.5,1.1-1.1V57.7C51.2,56.5,50.7,55.4,49.8,54.6z"/>
	<path class="st5" d="M32.3,57.1c0,0.2,0,0.3,0,0.5v24.4h17.6V57.7c0-0.2,0-0.3,0-0.5L32.3,57.1L32.3,57.1z"/>
	<path class="st6" d="M30.9,81.2v1.1c0,0.6,0.5,1.1,1.1,1.1h18.1c0.6,0,1.1-0.5,1.1-1.1v-1.1C44.5,79.8,37.7,79.9,30.9,81.2z"/>
	<path class="st3" d="M40.6,62c-0.8,0-1.4,0.7-1.4,1.4v10.9c0,0.8,0.7,1.4,1.4,1.4h10.6V62L40.6,62L40.6,62z"/>
</g>
<g>
	<path class="st7" d="M7.7,51.2c-0.4-2.1-0.6-4.3-0.6-6.6C7.1,24,23.8,7.3,44.5,7.3c5.5,0,10.8,1.2,15.5,3.3"/>
	<path class="st7" d="M26.3,77.4c-4.5-2.5-8.5-6-11.6-10.1"/>
	<path class="st7" d="M81.3,38c0.4,2.2,0.6,4.4,0.6,6.7c0,16.5-10.7,30.5-25.5,35.5"/>
</g>
</svg>
