<?xml version="1.0" encoding="utf-8"?>
<!-- Generator: Adobe Illustrator 22.1.0, SVG Export Plug-In . SVG Version: 6.00 Build 0)  -->
<svg version="1.1" id="Layer_1" xmlns="http://www.w3.org/2000/svg" xmlns:xlink="http://www.w3.org/1999/xlink" x="0px" y="0px"
	 viewBox="0 0 39 39" style="enable-background:new 0 0 39 39;" xml:space="preserve">
<style type="text/css">
	.st0{fill:#999999;}
</style>
<g>
	<path class="st0" d="M33.3,0H19.5H5.7C2.6,0,0,2.6,0,5.7v27.6C0,36.4,2.6,39,5.7,39h13.8h13.8c3.2,0,5.7-2.6,5.7-5.7V5.7
		C39,2.6,36.4,0,33.3,0z M19.5,29.7c-5.7,0-10.3-4.6-10.3-10.3S13.8,9.1,19.5,9.1s10.4,4.6,10.4,10.3S25.2,29.7,19.5,29.7z M31,11.4
		c-1.9,0-3.4-1.5-3.4-3.4s1.5-3.4,3.4-3.4s3.4,1.5,3.4,3.4S32.9,11.4,31,11.4z"/>
	<circle class="st0" cx="31" cy="8" r="1.1"/>
	<path class="st0" d="M19.5,11.4c-4.4,0-8,3.6-8,8c0,4.4,3.6,8,8,8s8.1-3.6,8.1-8C27.6,15,23.9,11.4,19.5,11.4z"/>
</g>
</svg>
