<?xml version="1.0" encoding="utf-8"?>
<!-- Generator: Adobe Illustrator 22.1.0, SVG Export Plug-In . SVG Version: 6.00 Build 0)  -->
<svg version="1.1" id="Capa_1" xmlns="http://www.w3.org/2000/svg" xmlns:xlink="http://www.w3.org/1999/xlink" x="0px" y="0px"
	 viewBox="0 0 39 39" style="enable-background:new 0 0 39 39;" xml:space="preserve">
<style type="text/css">
	.st0{fill:#999999;}
</style>
<path class="st0" d="M37.9,30L30,24.8c-1-0.7-2.3-0.4-3.1,0.5l-2.3,3c-0.3,0.4-0.8,0.5-1.3,0.3l-0.4-0.2c-1.5-0.8-3.3-1.8-6.9-5.4
	c-3.6-3.6-4.6-5.4-5.4-6.9l-0.2-0.4c-0.2-0.4-0.1-1,0.3-1.3l3-2.3c0.9-0.7,1.2-2.1,0.5-3.1L8.9,1c-0.7-1-2-1.3-3.1-0.7l-3.3,2
	C1.4,2.9,0.7,3.9,0.3,5c-1.2,4.3-0.3,11.8,10.7,22.8C19.8,36.6,26.3,39,30.8,39c1,0,2.1-0.1,3.1-0.4c1.2-0.3,2.1-1.1,2.8-2.1l2-3.3
	C39.2,32.1,38.9,30.7,37.9,30z"/>
</svg>
