<?xml version="1.0" encoding="utf-8"?>
<!-- Generator: Adobe Illustrator 22.1.0, SVG Export Plug-In . SVG Version: 6.00 Build 0)  -->
<svg version="1.1" id="Layer_1" xmlns="http://www.w3.org/2000/svg" xmlns:xlink="http://www.w3.org/1999/xlink" x="0px" y="0px"
	 viewBox="0 0 89 74" style="enable-background:new 0 0 89 74;" xml:space="preserve">
<style type="text/css">
	.st0{fill:#AED482;}
	.st1{fill:#C4E1A5;}
	.st2{fill:#D9CCC8;}
	.st3{fill:#BCAAA7;}
	.st4{fill:#EEEEEC;}
	.st5{fill:#BFCB2F;}
	.st6{fill:#AFB424;}
	.st7{fill:#BFCA34;}
	.st8{fill:#B0B42B;}
	.st9{fill:#BEAAA5;}
	.st10{fill:#D7CCC7;}
	.st11{fill:#FE8B65;}
	.st12{fill:#BDAAA5;}
	.st13{fill:#FDAC94;}
	.st14{fill:#FD7246;}
	.st15{fill:#FE8B64;}
	.st16{fill:#FE7144;}
	.st17{fill:#FDB74F;}
	.st18{fill:#FDAE93;}
	.st19{fill:#FECB7F;}
	.st20{fill:#D7CBC8;}
	.st21{fill:#01897C;}
	.st22{fill:#01796A;}
	.st23{fill:#EEEEED;}
	.st24{fill:#BCAAA5;}
	.st25{fill:#FDFDFC;}
	.st26{fill:#DBCEC9;}
	.st27{fill:#DCD2CC;}
	.st28{fill:#DAD2C9;}
	.st29{fill:#DACFC9;}
	.st30{fill:#DCCEC7;}
	.st31{fill:#EADCD5;}
	.st32{fill:#F2E1DB;}
	.st33{fill:#E7DAD5;}
	.st34{fill:#EBE3DC;}
	.st35{fill:#E7DDD5;}
	.st36{fill:#E8DCD6;}
	.st37{fill:#EDFD4D;}
	.st38{fill:#EFD686;}
	.st39{fill:#9E9D22;}
	.st40{fill:#817816;}
	.st41{fill:#EDEFEF;}
	.st42{fill:#E5C263;}
	.st43{fill:#F6F6F6;}
	.st44{fill:#E5C262;}
	.st45{fill:#EFD685;}
	.st46{fill:#DADADA;}
	.st47{fill:#B4C442;}
	.st48{fill:#C7C7C7;}
	.st49{fill:#24251C;}
	.st50{fill:#AFAFAF;}
	.st51{fill:#ADBF32;}
	.st52{fill:#A9A6A8;}
	.st53{fill:#A9A9A9;}
	.st54{fill:#ACAB96;}
	.st55{fill:#ACACAB;}
</style>
<g>
	<g>
		<path class="st0" d="M68.9,41.6c-0.1,1.2-0.2,2.4-0.3,3.6c-0.3,2.8-0.6,5.6-0.9,8.4c-0.3,3.2-0.7,6.5-1,9.7c0,0.2-0.1,0.5-0.1,0.7
			c-1.1,0.4-2.2,0.2-3.3,0.1C63.1,64.1,63,64,63,63.9c-0.2-0.4-0.1-0.8-0.1-1.2c0-3.7,0-7.4,0-11.1c0-1.1,0-1.1-1.2-1.2
			c-0.5,0-1.1,0.2-1.4-0.4c0.5-0.4,1-0.2,1.5-0.3c0.4,0,0.8,0,1.1,0c0.9,0,1.8,0,2.6,0c0.7,0,1-0.3,1-1c0-0.8,0.2-1.5,0-2.3
			c-0.1-0.4-0.1-0.7-0.5-0.9c-1-0.3-1.9-0.2-2.9-0.1c-0.1,0-0.2,0.1-0.3,0.1c-1,0-2.1,0.2-3.1-0.2c0-0.5,0.4-0.4,0.7-0.5
			c0.5-0.1,1-0.1,1.5-0.1c0.5,0,0.8-0.2,0.8-0.8c0-0.1,0-0.3,0-0.4c0-1-0.1-1-1-1c-0.5,0-1.1,0-1.6,0c-0.2,0-0.6,0-0.5-0.4
			c1.1-0.4,2.2-0.1,3.3-0.2c1.2,0,2.4,0,3.7,0C67.4,42,68.2,42,68.9,41.6z"/>
		<path class="st1" d="M60.3,50c0.6,0.3,1.3,0.1,1.9,0.1c0.7,0,0.9,0.2,0.9,0.9c0,4.3,0,8.6,0,13c-1.1,0.4-2.3,0.4-3.4,0
			c-0.2-1.8-0.4-3.6-0.6-5.4c-0.2-1.6-0.3-3.2-0.5-4.7c-0.1-1.3-0.3-2.6-0.4-3.8c-0.1-1.7-0.4-3.3-0.5-4.9c-0.1-1-0.2-1.9-0.3-2.9
			c0.8-0.3,1.5-0.4,2.3,0c0.9,0.3,1.8,0.1,2.7,0.1c0.6,0,0.8,0.1,0.8,0.7c0,1.9,0,1.9-1.9,1.9c-0.5,0-1,0.1-1.4,0.3
			c-0.4,0.8-0.4,1.7-0.4,2.5C59.4,48.7,59.6,49.5,60.3,50z"/>
		<path class="st2" d="M59.7,64c1.1,0,2.3,0,3.4,0l0,0c0.1,0.2,0.2,0.3,0.2,0.6c0,1.2,0.2,2.4-0.1,3.6c-1,0.5-2,0.4-3,0
			c-0.4-0.1-0.5-0.5-0.5-0.9C59.7,66.2,59.7,65.1,59.7,64z"/>
		<path class="st3" d="M63.1,68.2c0-1.4,0-2.8,0-4.2c1.1,0,2.3,0,3.4,0c0,1,0,2.1,0,3.1c-0.2,1-0.6,1.3-1.5,1.3
			C64.3,68.4,63.7,68.6,63.1,68.2z"/>
		<path class="st4" d="M63.1,68.2c0.5,0,1.1,0,1.6,0c0.9,0.1,1.5-0.3,1.8-1.1c0,0.5,0.3,0.5,0.7,0.5c0.5,0,0.7,0.2,0.7,0.7
			c0,0.5-0.3,0.6-0.7,0.6c-2.7,0-5.5,0-8.3,0c-0.3,0-0.6-0.1-0.6-0.5c0-0.4,0.2-0.7,0.6-0.7c0.3,0,0.6,0,0.8-0.3c0.3,0.8,1,1,1.8,1
			C62,68.2,62.6,68.2,63.1,68.2z"/>
		<path class="st5" d="M59.7,42.3c-0.8,0-1.5,0-2.3,0c-0.2-1-0.2-1,0.9-1c3.5,0,7,0,10.5,0c0,0,0.1,0,0.1,0c0.1,0,0.1,0.1,0,0.1
			c-0.3,0.3-0.7,0.2-1,0.2c-1.1,0-2.3,0-3.4,0c-0.6,0-1,0.1-1.3,0.7C62,42.2,60.8,42.3,59.7,42.3z"/>
		<path class="st6" d="M63.1,42.2c-0.1-0.7,0.1-1,0.9-0.9c1.6,0.1,3.2,0,4.9,0c0,0.1,0,0.2,0,0.3c-0.2,0.5-0.5,0.6-1,0.6
			C66.3,42.2,64.7,42.2,63.1,42.2z"/>
		<path class="st7" d="M60.3,50c-0.7-0.1-1-0.6-1-1.2c-0.1-0.8,0-1.7,0-2.5c0-0.5,0.3-0.7,0.6-1c1.1,0,2.2,0,3.3,0
			c0.1,0.1,0,0,0.1,0.1c0.3,1.5,0.4,3.1,0,4.6C62.2,50,61.2,50,60.3,50z"/>
		<path class="st8" d="M63.1,50c0-1.5,0-3.1,0-4.7l0,0c1-0.1,2.1-0.1,3.1,0c0.9,0.3,0.7,1.2,0.7,1.8c0,0.5-0.1,1.1-0.1,1.7
			c0,0.8-0.3,1.1-1.1,1.1C64.9,50,64,50,63.1,50z"/>
		<path class="st7" d="M66.2,45.3c-1,0-2.1,0-3.1,0C64.1,45.1,65.2,45.1,66.2,45.3z"/>
	</g>
	<g>
		<path class="st9" d="M86,48c1.1,0.3,1.3,1,1.3,2c-0.1,4.6,0,9.1,0,13.7c0,0.4,0,0.8-0.1,1.2c-0.1,0-0.2,0-0.2-0.1
			c-0.2-0.6-0.1-1.2-0.1-1.8c0-0.8-0.1-0.9-0.9-0.9c-1,0-2,0-2.9,0c-0.6,0-1.1,0.1-1.7-0.2c0-0.5,0.4-0.4,0.7-0.4
			c0.6,0,0.8-0.3,0.8-0.9c0-1.3,0-2.5,0-3.8c0-0.3,0-0.7,0.1-1c0.2-0.3,0.5-0.3,0.8-0.4c0.7-0.1,1.4-0.3,1.9-0.8
			c0.8-0.8,0.8-1.6-0.2-2.2c-0.5-0.3-1.1-0.5-1.7-0.6c-0.3,0-0.6,0-0.8-0.3c-0.2-0.5-0.1-1-0.1-1.4c0-0.6,0-1.3-0.3-1.9
			C82.7,48,82.9,48,83,48c0.6,0,1.2,0,1.7,0c0.2,0,0.4,0,0.6,0C85.6,48,85.8,47.9,86,48z"/>
		<path class="st10" d="M83.1,55.6c0,1.7,0,3.5,0,5.2c0,0.6-0.2,0.9-0.8,0.8c-0.3,0-0.6-0.1-0.9,0.1c-0.8,0.5-1.7,0.4-2.5,0.1
			c-0.1-0.8,0-1.6-0.1-2.4c0-3.3,0-6.6,0-9.8c0-0.3-0.1-0.6,0.1-0.8c0.2-0.6,0.9-0.4,1.1-0.9c0.6,0.1,1.3,0.1,1.9,0.1
			c0.3,0,0.5,0,0.7,0.3c0.3,0.1,0.5,0.3,0.5,0.7c0,0.9,0,1.7,0,2.6c0,0,0,0.1-0.1,0.1c-0.8,0.2-1.5,0.2-2.3,0.7
			c-1.1,0.7-1.2,1.6-0.2,2.4c0.7,0.6,1.6,0.6,2.5,0.8C83,55.6,83,55.6,83.1,55.6z"/>
		<path class="st11" d="M82.6,48.2c-0.6,0-1.3,0-1.9,0c-0.3,0-0.5-0.1-0.7-0.3c0-3.4,0-6.9,0-10.3c0-0.3-0.1-0.6,0.2-0.9
			c1-0.2,1.9-0.1,2.9-0.1c0.3,0.3,0.2,0.7,0.3,1.1c0,2.2,0,4.3,0,6.5c0,0.8-0.2,1.7,1,1.7c0,0.2,0,0.2-0.1,0.3c-0.7,0.2-1,0.7-1,1.4
			c0,0.2-0.1,0.4-0.2,0.6C82.9,48.2,82.8,48.2,82.6,48.2z"/>
		<path class="st12" d="M87.1,64.9c0,0,0.1,0,0.1,0c0,0.8,0,1.7,0,2.5c0.1,0.5-0.2,0.8-0.6,0.9c-1.2,0.2-2.4,0.3-3.6-0.1
			c-0.3-0.7-0.2-1.4-0.2-2.1c0-0.6-0.2-0.9-0.9-0.9c-0.5,0-1.1,0-1.6,0c-0.3,0-0.7,0.1-0.7-0.4c0.6-0.4,1.3-0.2,1.9-0.2
			c0.5,0,1,0,1.5,0c1.1,0,2.1,0,3.2,0C86.6,64.7,86.9,64.7,87.1,64.9z"/>
		<path class="st4" d="M83.1,68.2c1,0,1.9,0,2.9,0c0.6,0,1-0.2,1.2-0.8c0.5,0,0.9,0.2,1.3,0.2c0.3,0.1,0.5,0.2,0.5,0.6
			c0,0.4-0.3,0.5-0.6,0.5c-0.6,0.1-1.3,0.1-1.8,0.1c-2.7-0.2-5.4,0.2-8,0.1c-0.4,0-0.7-0.1-1.1-0.2c-0.3-0.1-0.6-0.3-0.5-0.7
			c0.1-0.3,0.2-0.6,0.7-0.6c0.9,0.2,1-0.3,1-1.1c0-5.6,0-11.2,0-16.8c0-0.3-0.1-0.6,0.1-0.9c0,4.3,0,8.7,0,13
			c0.4,0.5,0.2,1.2,0.2,1.8c0,0.4,0,0.9,0,1.3c0,0.7,0,1.4,0,2.2c0,0.6,0.3,0.9,0.9,0.9c0.7,0,1.4,0,2.1,0
			C82.5,68,82.8,68,83.1,68.2z"/>
		<path class="st13" d="M83.1,36.6c-1,0-2,0-2.9,0c0.1-0.2,0.3-0.2,0.5-0.2c1.7,0,3.4,0,5,0c0.1,0,0.2,0.1,0.3,0.1
			c-0.1,0.3-0.1,0.7-0.1,1c0,2.4,0,4.9,0,7.3c0,0.3,0,0.7-0.1,1c-0.3,0.4-0.6,0.4-0.9,0c-0.2-0.4-0.1-0.7-0.1-1.1c0-2.2,0-4.5,0-6.7
			c0-1,0-1.3-1.1-1.2C83.4,36.9,83.2,36.8,83.1,36.6z"/>
		<path class="st14" d="M85.6,46c0-2.9,0-5.7,0-8.5c0-0.3-0.2-0.7,0.3-0.8c0.1,0.1,0.1,0.3,0.1,0.4c0,3.7,0,7.3,0,11
			c-0.1,0.1-0.3,0.1-0.4,0.1C85.2,47.4,85.3,46.7,85.6,46z"/>
		<path class="st14" d="M83.1,36.6c1.9,0,1.9,0,1.9,1.8c0,2.5,0,5,0,7.5c0.3,0.7,0.4,1.4,0,2.2c-0.6,0-1.2,0-1.8,0
			c0-0.5,0-1.1,0-1.6c0-0.3,0.1-0.4,0.4-0.4c0.2,0,0.4,0,0.7-0.1c-1.1-0.2-1.1-0.2-1.1-1.3C83.1,42.1,83.1,39.3,83.1,36.6z"/>
		<path class="st15" d="M78.9,64.9c0-1,0-2.1,0-3.1c0.8,0,1.7,0,2.5,0c0.6,0,1.1,0,1.7,0c0.4,1,0.4,2.1,0,3.1c-1.1,0-2.3,0-3.4,0
			C79.4,65.2,79.2,65.1,78.9,64.9z"/>
		<path class="st16" d="M83.1,64.9c0-1,0-2.1,0-3.1c1.1,0,2.3,0,3.5,0c0.4,0,0.6,0.1,0.6,0.6c0,0.9,0,1.7,0,2.5
			C85.8,64.9,84.4,64.9,83.1,64.9z"/>
		<path class="st17" d="M83.1,51.5c0.6,0,1.2,0.1,1.8,0.3c0.8,0.3,1.6,1,1.6,1.7c0,0.5-0.8,1.5-1.5,1.7c-0.6,0.2-1.2,0.4-1.9,0.4v0
			c-0.2-0.2-0.2-0.4-0.2-0.6c0-0.9,0-1.8,0-2.8C82.9,51.9,82.9,51.7,83.1,51.5L83.1,51.5z"/>
		<path class="st18" d="M84.9,48.1c0-0.7,0-1.4,0-2.2c0.2,0.1,0.4,0.2,0.6,0c0,0.7,0,1.4,0,2.2C85.4,48.1,85.2,48.1,84.9,48.1z"/>
		<path class="st19" d="M83.1,51.6c0,1.3,0,2.7,0,4c-1.1,0.1-2.1-0.3-3-1c-0.7-0.6-0.4-1.9,0.4-2.3C81.3,51.8,82.1,51.4,83.1,51.6z"
			/>
		<path class="st20" d="M78.9,64.9c0.3,0,0.5,0,0.8,0c0.9,0.3,1.8,0.1,2.7,0.1c0.5,0,0.7,0.1,0.7,0.7c0,0.8,0,1.6,0,2.5
			c-1.1,0-2.1,0-3.2,0c-0.7,0-1-0.3-1-1C78.9,66.4,78.9,65.7,78.9,64.9z"/>
	</g>
	<g>
		<path class="st21" d="M32.6,67.3c-0.2-0.4-0.2-0.8-0.2-1.3c0-5.8,0-11.5,0-17.3c0-1.6,0.6-2.9,1.9-3.9c0.9-0.6,2-0.6,3-0.5
			c0.7,0,1-0.2,0.9-0.9c0-0.2,0-0.4,0-0.6c0-1.8,0-1.8-1.8-2c-1.3-0.2-2.6-0.2-3.9,0.3c-0.3-0.7,0-1,0.7-1.1c1-0.2,2-0.2,3-0.1
			c1.4,0.2,2.8,0.5,4.2,0.7c-0.1,0.5-0.1,1-0.1,1.5c0.1,2.1,0,4.1,0,6.2c0,0.5-0.1,0.9-0.6,1.2c-0.9,0.2-1.9,0.1-2.9,0.1
			c-0.9,0-0.9,0.1-0.9,0.9c0,3.1,0,6.1,0,9.2c0,0.5,0,1,0.7,1.1c0.9,0.2,1.8,0.1,2.6,0.1c0.8,0,1.1,0.2,1,1c-0.1,1.7,0.1,3.5,0,5.2
			c0,0.4,0,0.8-0.2,1.2c-0.2,0.2-0.5,0.2-0.8,0.2c-1.6,0-3.2,0-4.8,0C33.6,68.4,32.9,68.1,32.6,67.3z"/>
		<path class="st22" d="M39.7,49.2c0.3-0.2,0.3-0.5,0.3-0.8c-0.1-2.3,0.1-4.6-0.1-6.8c0-0.2-0.3-0.9,0.4-1c1,0,2.1,0.1,3.1-0.2
			c0.1,0,0.4-0.3,0.5,0.1c0,0.3,0.2,0.7-0.2,0.8c-0.5,0.1-1,0.2-1.4,0.3c-0.3,0-0.5,0.2-0.4,0.5c0,0,0,0.1,0,0.1
			c-0.1,2.2-0.1,2.2,2.1,2.2c2,0,3.4,1.2,3.8,3.3c0.1,0.5,0.1,1,0.1,1.5c0,5.6,0,11.2,0,16.8c0,0.6-0.1,1.1-0.3,1.6
			c-0.2,0.7-0.8,0.9-1.4,1c-1.8,0.1-3.7,0.1-5.5,0c-0.2,0-0.4-0.1-0.5-0.3c0-0.9,0-1.7,0-2.6c0-1.3-0.2-2.5,0-3.8
			c0.1-0.5-0.1-0.7-0.7-0.7c-0.9,0-1.8,0.2-2.7-0.1c0.2-0.2,0.5-0.2,0.8-0.2c1,0,2-0.1,3,0c0.2,0,0.5,0.1,0.5,0.3
			c0.1,0.4,0.2,0.6,0.7,0.7c0.3,0.1,0.2,0.3,0.2,0.5c-0.1,0.7,0.5,1.1,1.1,0.7c0.3-0.2,0.5-0.1,0.6,0.2c0.2,0.4,0.5,0.3,0.8,0.3
			c0.4,0,0.5-0.2,0.5-0.6c0-0.4,0.2-0.5,0.5-0.3c0.3,0.1,0.5,0.3,0.8-0.1c0.2-0.3,0.4-0.5,0.1-0.9c-0.3-0.3-0.1-0.6,0.2-0.7
			c0.4-0.2,0.2-0.6,0.2-0.9c0-0.4-0.3-0.4-0.5-0.4c-0.3,0-0.5-0.1-0.4-0.4c0.1-0.7-0.2-1-0.9-1.1c-0.2,0-0.3,0-0.4-0.2
			c-0.2-0.4-0.1-0.8-0.1-1.1c0-2,0-3.9,0-5.9c0-1.3,0-1.3-1.4-1.3c-0.8,0-1.5,0-2.3,0C40.3,49.5,40,49.5,39.7,49.2z"/>
		<path class="st23" d="M40,68.2c1.9,0,3.9,0,5.9,0c0.6,0,1.2-0.3,1.6-0.8c0.6,0.3,1.2,0.1,1.8,0.2c0.5,0.1,0.9,0.1,0.9,0.6
			c0,0.5-0.4,0.6-0.9,0.6c-6.1,0-12.3,0-18.4,0c-0.4,0-0.9,0-0.9-0.5c0-0.5,0.4-0.7,0.9-0.7c0.4,0,0.8,0,1.2,0
			c0.3,0,0.5,0.1,0.6-0.3c0.6,0.8,1.3,1,2.2,1C36.6,68.2,38.3,68.2,40,68.2z"/>
		<path class="st24" d="M39.7,49.2c1.2,0.1,2.4,0,3.6,0.1c1.2,0,1.2,0,1.2,1.1c0,2.3,0,4.5,0,6.8c0,0.3-0.1,0.6,0.2,0.8
			c0,0.2-0.1,0.4-0.3,0.4c-0.2,0-0.3-0.2-0.3-0.3c-0.1-0.4-0.4-0.4-0.7-0.3c-0.3,0-0.6,0.1-0.6,0.5c0,0.4-0.2,0.5-0.6,0.4
			c-0.5-0.2-0.6,0.2-0.9,0.4c-0.3,0.3,0,0.5,0.1,0.7c0.2,0.3,0.1,0.5-0.2,0.6c-0.3,0.1-0.5,0.3-0.6,0.6c-1.4,0-2.7,0-4.1,0
			c-0.7,0.1-0.9-0.3-0.9-1c0-3.3,0-6.6,0-9.9c0-0.6,0.2-0.8,0.8-0.8C37.6,49.2,38.7,49.3,39.7,49.2z"/>
		<path class="st25" d="M40.7,60.9c-0.4-0.9,0.5-0.6,0.8-0.9c0-0.4-0.9-0.5-0.5-1c0.6-0.9,0.6-0.9,1.6-0.5c0-0.9,0.4-1.2,1.2-1.1
			c0.3,0,0.4,0.3,0.4,0.6c0.1,0.7,0.3,0.3,0.5,0c0.2-0.2,0.4-0.5,0.7-0.2c0.8,0.8,0.8,0.8,0.4,1.5c0.4,0.2,1.1-0.2,1,0.4
			c0,0.5,0.5,1.5-0.7,1.4c0.1,0.5,0.9,0.7,0.4,1.1c-0.4,0.4-0.7,1.4-1.5,0.3c-0.2,0.4,0.2,1.1-0.5,1.1c-0.5,0-1.4,0.5-1.2-0.8
			c-0.5,0.1-0.6,0.9-1.1,0.5c-0.9-0.7-0.9-0.7-0.4-1.6C41,61.9,40.5,61.8,40.7,60.9z"/>
		<path class="st26" d="M36.9,54.9c2.2,0,4.4,0,6.6,0C43.1,55.2,38.2,55.3,36.9,54.9z"/>
		<path class="st27" d="M43.5,54.5c-2.2,0-4.4,0-6.6,0c0-0.1,0-0.1,0-0.2c2.2,0,4.4,0,6.6,0C43.5,54.4,43.5,54.4,43.5,54.5z"/>
		<path class="st28" d="M40.1,51.9c2.5,0,4.6,0,4.6,0.1s-2,0.1-4.6,0.1c-2.5,0-4.6,0-4.6-0.1S37.6,51.9,40.1,51.9z"/>
		<ellipse class="st29" cx="40.1" cy="56.7" rx="4.6" ry="0.1"/>
		<ellipse class="st30" cx="40.1" cy="52.7" rx="4.6" ry="0.1"/>
		<path class="st31" d="M43.4,51.5c-2.1,0-4.3,0-6.4,0c0,0,0-0.1,0-0.1C39.1,51.4,41.2,51.4,43.4,51.5
			C43.4,51.5,43.4,51.5,43.4,51.5z"/>
		<ellipse class="st32" cx="40.1" cy="50.9" rx="4.5" ry="0.1"/>
		<path class="st33" d="M37,53.8c2.1,0,4.2,0,6.3,0c0,0,0,0.1,0,0.1C41.2,53.8,39.1,53.8,37,53.8C37,53.8,37,53.8,37,53.8z"/>
		<path class="st34" d="M37,55.5c2.1,0,4.2,0,6.3,0c0,0,0,0.1,0,0.1C41.2,55.6,39.1,55.6,37,55.5C37,55.5,37,55.5,37,55.5z"/>
		<path class="st35" d="M37,53.2c2.1,0,4.2,0,6.3,0c0,0,0,0.1,0,0.1C41.2,53.2,39.1,53.2,37,53.2C37,53.2,37,53.2,37,53.2z"/>
		<path class="st36" d="M43.3,56.2c-2.1,0-4.2,0-6.3,0c0,0,0-0.1,0-0.1C39.1,56.1,41.2,56.1,43.3,56.2
			C43.3,56.2,43.3,56.2,43.3,56.2z"/>
		<path class="st37" d="M44.6,60.6c0,0.5-0.3,0.9-0.8,0.9c-0.5,0-0.8-0.3-0.8-0.9c0-0.6,0.4-0.8,0.8-0.8
			C44.3,59.8,44.6,60.1,44.6,60.6z"/>
	</g>
	<g>
		<path class="st38" d="M1.8,57.9c0-2.2,0-4.3,0-6.5c0-0.7,0.5-0.7,0.9-0.7c6.1,0,12.2,0,18.3,0c0.8,0,1.7,0,2.5,0
			c0.2,0,0.5-0.1,0.7,0.2c-0.4,0.3-0.9,0.2-1.4,0.2c-0.3,0-0.6-0.1-0.9,0.1c0.1,1.1,0.1,2.2,0,3.3c0,0.3,0,0.6-0.2,0.7
			c-0.6,0.4-1.1,0.9-1.4,1.6c-0.1,0.3-0.4,0.2-0.6-0.1c-0.3-0.4-0.5-0.9-0.3-1.5c0.1-0.3,0.1-0.6,0.2-0.9c0.4-1.2-0.3-2.3-0.1-3.4
			c-0.1,0-0.1,0.1-0.2,0.1c-1.3,0.1-2.5,0.1-3.8,0.1c-2.3,0-2.3,0-2.3,2.3c0,1.1,0,2.3,0,3.4c0,0.4,0,0.7-0.2,1
			c-0.2,0.2-0.5,0.2-0.8,0.2c-2.7,0-5.3,0-8,0C3.4,58.1,2.5,58.4,1.8,57.9z"/>
		<path class="st39" d="M1.8,57.9c0.8,0,1.5,0,2.3,0c0.3,0.3,0.2,0.7,0.2,1.1c0,1.5,0,2.9,0,4.4c0,1.3,0.5,1.8,1.8,1.8
			c2.3,0,4.5,0,6.8,0c2.2-0.1,4.4,0,6.6,0c0.3,0,0.6,0,0.8,0.2c0,0.6-0.5,0.4-0.8,0.4c-1.1,0.1-2.1,0-3.2,0c-0.7,0-1.4,0-2.2,0
			c-0.9,0-1.3,0.6-1,1.5c0.1,0.3,0.3,0.3,0.5,0.3c0.4,0,0.8,0,1.2,0c2.1,0,4.2,0,6.4,0c0.4,0,0.8-0.1,1.1,0.2c0,0.3-0.3,0.3-0.5,0.4
			c-0.3,0.1-0.6,0-0.9,0c-5.5,0-10.9,0-16.4,0c-0.4,0-0.8,0-1.2-0.1c-0.6-0.2-1.2-0.4-1.4-1.1c-0.3-0.5-0.4-1.1-0.4-1.7
			C1.7,63,1.8,60.5,1.8,57.9z"/>
		<path class="st40" d="M22.5,68.1c-2.9,0-5.8,0-8.7,0c-0.6,0-0.8-0.2-0.8-0.8c0-1.5,0-1.5,1.5-1.5c1.7,0,3.5,0,5.2,0
			c0.2,0,0.5,0.1,0.7-0.1c0.5-0.5,1.1-0.9,1.2-1.7c0.1-1.7,0-3.3,0-5c0-0.3-0.1-0.7,0.2-1c0.8-0.3,1.6-0.4,2.3,0.1
			c0,2.7,0,5.4,0,8.1c0,0.4-0.2,0.8-0.3,1.2C23.5,68,23.2,68.2,22.5,68.1z"/>
		<path class="st41" d="M22.5,68.1c0.6,0,1-0.5,1.4-0.8c0.4,0.4,0.9,0.2,1.3,0.2c0.5,0,0.9,0.1,0.9,0.7c0,0.5-0.3,0.7-0.9,0.7
			c-8.1,0-16.2,0-24.4,0c-0.5,0-0.8-0.1-0.9-0.7c0-0.6,0.4-0.7,0.9-0.7c0.3,0,0.7-0.1,1,0.1C2,67.6,2,67.4,2.1,67.3
			c0.7,0.7,1.5,0.9,2.5,0.9c5.7,0,11.3,0,16.9,0C21.8,68.2,22.2,68.3,22.5,68.1z"/>
		<path class="st42" d="M24.1,58c-0.8,0-1.5,0-2.3,0c-0.5-0.9-0.3-1.8-0.2-2.7c0.1-1.4,0.1-2.8,0-4.1c0.5-0.3,1.1-0.1,1.6-0.2
			c0.3,0,0.6,0,0.8,0C24.2,53.3,24.2,55.6,24.1,58z"/>
		<path class="st43" d="M13,65.6c-2.4,0-4.9,0.1-7.3,0c-1,0-1.6-0.8-1.6-1.8c0-1.9,0-3.9,0-5.8c3,0,5.9,0,8.9,0c0,0,0.1,0.1,0.1,0.1
			c0.1,0.2,0.1,0.4,0,0.6c-0.1,0.3-0.1,0.7,0,1c0.1,0.2,0.1,0.3,0.1,0.5c0,0.2-0.1,0.3-0.2,0.3c-0.3,0-0.3-0.3-0.5-0.6
			c-0.2-0.4-0.4-0.7-1-0.9c0.3,0.8,0.6,1.5-0.6,1.6c0.5,0.5,0.9,0.2,1.3,0.3c0.1,0.1,0.2,0.1,0.2,0.2c-0.1,0.5,0.3,0.8,0.5,1.1
			c0,0.8-0.1,0.9-0.9,0.9c-1.8,0-3.5,0-5,0c1.6,0,3.6,0,5.5,0c0.1,0,0.2,0.1,0.2,0.2c0,0.1-0.1,0.2-0.2,0.2c-1.8,0-3.7,0-5,0
			c1.4,0,3.2,0,5,0c0.1,0,0.1,0.1,0.1,0.2c-0.4,0.4-0.9,0.2-1.3,0.2c-0.4,0-0.9,0-1.1,0c0.7,0.1,1.6-0.2,2.4,0.1
			c0,0.1,0,0.2-0.1,0.2c-1.1,0-2.2,0-3,0c0.8,0.1,1.9,0,3,0c0.1,0.1,0.1,0.2,0,0.2c-1.1,0.1-2.2,0-3.3,0c1,0,2.1,0,3.1,0
			C13.2,64.9,13.2,65.2,13,65.6z"/>
		<path class="st44" d="M13,57.9c0-2.1,0-4.2,0-6.3c0-0.5,0.2-0.7,0.7-0.7c1.9,0,3.9,0,5.8,0c0.1,1.6,0.3,3.1-0.1,4.7
			c-0.1,0.4,0.2,0.8,0.2,1.2c0,0.4,0.1,0.8-0.2,1.1c-0.3,0.2-0.6,0.2-0.9,0.2c-1.5,0-3.1,0-4.6,0C13.5,58.2,13.2,58.2,13,57.9
			L13,57.9z"/>
		<path class="st45" d="M19.3,57.9c0-2,0-4,0-6.1c0-0.3,0-0.6,0.1-0.9c0.5,0.3,0.1,0.9,0.3,1.3c0.4,1.1,0.1,2.2-0.2,3.2
			c-0.2,0.6,0.3,0.9,0.4,1.4c0.3-0.1,0.3-0.3,0.3-0.5c0.1-0.4,0.2-0.8,0.6-0.9c0.9-0.2,0.9-0.9,0.9-1.6c0-1,0-1.9,0-2.9
			c0.3,0.2,0.1,0.5,0.2,0.8c0,2,0,4,0,6c0,1.8,0,3.6,0,5.4c0,0.3,0.1,0.6-0.1,0.8c-0.3-0.3-0.3-0.6-0.3-1c0-1.3,0-2.7,0-4
			c0-0.9-0.1-0.9-0.9-1C20.1,58.2,19.7,58.3,19.3,57.9z"/>
		<path class="st46" d="M19.3,57.9c0.6,0,1.1,0,1.7,0c0.5,0,0.7,0.2,0.7,0.7c0,1.9,0,3.7,0,5.6c-0.1,0.8-0.6,1.2-1.3,1.4
			c-2.5,0-5,0-7.4,0c0-0.3,0-0.5-0.2-0.8c1.2-0.2,2.4,0,3.3-0.1c-0.9-0.1-2,0.1-3.1-0.1c0-0.1,0-0.1,0-0.1c1.1-0.2,2.3,0,3.4-0.2
			c0.1-0.1-0.1-0.1,0,0c0,0,0,0.1,0,0.1c-1.1,0-2.2,0.1-3.4-0.1c0,0,0-0.1,0-0.1c0.8-0.4,1.7,0,2.3-0.2c-0.7-0.1-1.5,0.2-2.3-0.2
			c0-0.1,0-0.1,0-0.1c0.8-0.2,1.7-0.1,2.5-0.1c1.1,0,2.2,0,3.3,0c-1.7,0-3.4,0-5.1,0c-0.2,0-0.5,0.1-0.7-0.1c0-0.1,0-0.1,0-0.1
			c1-0.2,2.1-0.1,3.1-0.1c1.1,0,2.3,0,3.4,0c-2.1,0-4.2,0-6.3,0c-0.1,0-0.2,0-0.3,0.1c-2.3,0-4.7,0-7.1,0c0.3-0.4,0.6-0.3,0.8-0.3
			c1.8,0,3.5-0.1,5.3,0c0.8,0,1.1-0.2,1-1c0-0.4,0.2-0.6,0.6-0.5c0.5,0.2,0.6-0.2,0.7-0.4c-0.2-0.1,0.6-0.1,0-0.3
			c-0.2-0.1-0.4-0.2-0.5-0.4c-0.1-0.5,0-1.1-0.6-1.5C13.1,59,13,58.8,13,58.6c0-0.2,0-0.4,0-0.6C15.1,57.9,17.2,57.9,19.3,57.9z"/>
		<path class="st47" d="M12.4,61c-0.4,0.2-0.8,0.2-1.2,0.1C11,61,10.8,61,10.8,60.8c0-0.2,0.2-0.3,0.3-0.4c0.7-0.2,0.8-0.5,0.4-1
			c-0.1-0.2-0.2-0.4,0-0.6c0.2-0.1,0.4,0,0.6,0.2c0.5,0.3,0.6,0.9,0.8,1.4C13.1,60.9,12.7,61,12.4,61z"/>
		<path class="st48" d="M13,63.8c1.2,0,2.3,0,3.5,0c0,0.1,0,0.2,0,0.3c-1.2,0-2.3,0-3.5,0s-2.3,0-3.5,0c0-0.1,0-0.2,0-0.3
			C10.7,63.8,11.8,63.8,13,63.8z"/>
		<path class="st49" d="M14.3,61.2c-0.1,0.7-0.3,0.8-0.8,0.5c-0.4-0.2-0.4,0.3-0.6,0.4c-0.8,0-0.7-0.4-0.5-0.9
			C13.2,60.5,13.9,60.5,14.3,61.2z"/>
		<path class="st50" d="M13,63.5c1.9,0,3.8,0,5.8,0c0,0.1,0,0.1,0,0.2c-1.9,0-3.8,0-5.8,0c-1.9,0-3.8,0-5.7,0c0-0.1,0-0.1,0-0.2
			C9.1,63.5,11.1,63.5,13,63.5z"/>
		<path class="st51" d="M13.3,58.9c0.7,0.4,0.6,1.1,0.6,1.7c-0.5,0.2-0.6-0.2-0.8-0.5c-0.1-0.1-0.2-0.2-0.2-0.4
			c-0.1-0.2,0-0.4,0-0.6C12.9,58.8,13.1,58.7,13.3,58.9z"/>
		<path class="st52" d="M13,64.6c1.1,0,2.3,0,3.4,0c0,0.1,0,0.1,0,0.2c-1.2,0-2.4,0-3.5,0c-1.1,0-2.2,0-3.3,0c0-0.1,0-0.1,0-0.2
			C10.7,64.6,11.8,64.6,13,64.6z"/>
		<path class="st53" d="M13,64.3c1.1,0,2.3,0,3.4,0c0,0.1,0,0.1,0,0.2c-1.1,0-2.3,0-3.4,0c-1.1,0-2.3,0-3.4,0c0-0.1,0-0.1,0-0.2
			C10.7,64.3,11.8,64.3,13,64.3z"/>
		<path class="st54" d="M13.1,60.1c0.3,0,0.4,0.6,0.8,0.5c0.4,0.2,0.9,0.3,1,0.8c-0.3,0.2-0.3-0.5-0.6-0.1c-0.4-0.5-1.2-0.5-1.8,0
			c-0.1-0.1-0.1-0.1-0.1-0.2c0.2-0.2,0.5-0.3,0.6-0.6C13.1,60.4,13.1,60.2,13.1,60.1z"/>
		<path class="st47" d="M13.3,58.9c-0.6,0.1,0,0.6-0.3,0.8c-0.2-0.4-0.2-0.7,0-1.1C13.1,58.6,13.2,58.7,13.3,58.9z"/>
		<path class="st55" d="M13,63.4c0.1-0.1,0.2-0.2,0.2-0.2c2.2,0,4.4,0,6.6,0.2C17.5,63.4,15.3,63.4,13,63.4L13,63.4z"/>
	</g>
</g>
</svg>
