<?xml version="1.0" encoding="utf-8"?>
<!-- Generator: Adobe Illustrator 22.1.0, SVG Export Plug-In . SVG Version: 6.00 Build 0)  -->
<svg version="1.1" id="Capa_1" xmlns="http://www.w3.org/2000/svg" xmlns:xlink="http://www.w3.org/1999/xlink" x="0px" y="0px"
	 viewBox="0 0 89 74" style="enable-background:new 0 0 89 74;" xml:space="preserve">
<style type="text/css">
	.st0{fill:#E56353;}
	.st1{fill:#D15241;}
	.st2{fill:#3EA69B;}
	.st3{fill:#44C4A1;}
	.st4{fill:#EBF0F3;}
	.st5{fill:#FCD462;}
	.st6{fill:#DC8744;}
</style>
<g>
	<circle class="st0" cx="68.9" cy="41.7" r="8.8"/>
	<path class="st1" d="M82.1,69c1.8,0,3.2-1.9,2.8-3.9c-1.6-8.4-8.2-14.6-16-14.6s-14.5,6.3-16,14.6c-0.4,2,1,3.9,2.8,3.9H82.1z"/>
	<path class="st0" d="M52.8,65.1c1.6-8.4,8.2-14.6,16-14.6V69H55.6C53.8,69,52.5,67.1,52.8,65.1z"/>
	<path class="st1" d="M68.9,50.5c4.9,0,8.8-4,8.8-8.8s-4-8.8-8.8-8.8V50.5z"/>
	<circle class="st2" cx="20.1" cy="41.7" r="8.8"/>
	<path class="st3" d="M33.4,69c1.8,0,3.2-1.9,2.8-3.9c-1.6-8.4-8.2-14.6-16-14.6s-14.5,6.3-16,14.6c-0.4,2,1,3.9,2.8,3.9L33.4,69
		L33.4,69z"/>
	<path class="st2" d="M4.1,65.1c1.6-8.4,8.2-14.6,16-14.6V69H6.9C5.1,69,3.7,67.1,4.1,65.1z"/>
	<path class="st3" d="M20.1,50.5c4.9,0,8.8-4,8.8-8.8s-4-8.8-8.8-8.8C20.1,32.8,20.1,50.5,20.1,50.5z"/>
	<path class="st4" d="M63.1,7.6H39.4c-1.6,0-2.8,1.3-2.8,2.8v11.7c0,1.6,1.3,2.8,2.8,2.8H53l10.9,7.6l-3.9-7.6h3
		c1.6,0,2.8-1.3,2.8-2.8V10.4C65.9,8.8,64.7,7.6,63.1,7.6z"/>
	<path class="st5" d="M57.4,5H26.8c-1.3,0-2.4,1.1-2.4,2.4v12.2c0,1.3,1.1,2.4,2.4,2.4h3.5L27,28.5l9.4-6.5h21
		c1.3,0,2.4-1.1,2.4-2.4V7.4C59.8,6.1,58.7,5,57.4,5z"/>
	<g>
		<rect x="28.4" y="7" class="st6" width="27.3" height="3.1"/>
		<rect x="28.4" y="11.9" class="st6" width="27.3" height="3.1"/>
		<rect x="28.4" y="16.9" class="st6" width="27.3" height="3.1"/>
	</g>
</g>
</svg>
