<?xml version="1.0" encoding="utf-8"?>
<!-- Generator: Adobe Illustrator 22.1.0, SVG Export Plug-In . SVG Version: 6.00 Build 0)  -->
<svg version="1.1" id="Capa_1" xmlns="http://www.w3.org/2000/svg" xmlns:xlink="http://www.w3.org/1999/xlink" x="0px" y="0px"
	 viewBox="0 0 89 74" style="enable-background:new 0 0 89 74;" xml:space="preserve">
<style type="text/css">
	.st0{fill:#DC8744;}
	.st1{fill:#D15241;}
	.st2{fill:#FCD462;}
	.st3{fill:#3EA69B;}
	.st4{fill:#E56353;}
	.st5{fill:#F6C358;}
	.st6{fill:#31978C;}
	.st7{fill:#3A556A;}
	.st8{fill:#2F4859;}
</style>
<g>
	<g>
		
			<rect x="33.3" y="24.1" transform="matrix(0.8562 -0.5166 0.5166 0.8562 -6.0715 30.135)" class="st0" width="35.5" height="3.7"/>
		
			<rect x="49.3" y="31.1" transform="matrix(0.5165 -0.8563 0.8563 0.5165 -17.1232 67.3819)" class="st0" width="3.7" height="35.5"/>
	</g>
	<circle class="st1" cx="27.7" cy="35.1" r="17.4"/>
	<circle class="st2" cx="67.3" cy="16.5" r="11.5"/>
	<circle class="st3" cx="66.3" cy="57.5" r="11.5"/>
	<path class="st4" d="M27.7,52.6c9.6,0,17.4-7.8,17.4-17.4s-7.8-17.4-17.4-17.4V52.6z"/>
	<path class="st5" d="M67.3,28c6.3,0,11.5-5.1,11.5-11.5S73.6,5,67.3,5V28z"/>
	<path class="st6" d="M66.3,69c6.3,0,11.5-5.1,11.5-11.5S72.6,46,66.3,46V69z"/>
	<circle class="st7" cx="27.7" cy="27.9" r="5.2"/>
	<path class="st8" d="M16.8,43.9c0-6,4.9-10.9,10.9-10.9s10.9,4.9,10.9,10.9"/>
	<circle class="st7" cx="67.3" cy="12.1" r="3"/>
	<path class="st8" d="M61,21.3c0-3.5,2.8-6.3,6.3-6.3c3.5,0,6.3,2.8,6.3,6.3"/>
	<circle class="st7" cx="66.3" cy="53.1" r="3"/>
	<path class="st8" d="M60,62.4c0-3.5,2.8-6.3,6.3-6.3c3.5,0,6.3,2.8,6.3,6.3"/>
</g>
</svg>
